<svg width="78" height="54" viewBox="0 0 78 54" fill="none" xmlns="http://www.w3.org/2000/svg">
<path d="M46.4902 19.5617C46.4902 20.5407 46.2415 21.6761 45.5227 22.6813H47.5545V6.99121H41.0601V13.4008C44.5721 14.4896 46.4902 16.7403 46.4902 19.5617Z" fill="#213E99"/>
<path d="M35.2636 12.8423C36.7277 12.8423 38.0924 13.1853 39.1354 13.4611C36.9263 13.0719 33.5005 13.6348 31.7316 15.0301V22.6812H38.2286V13.9764C39.3434 14.1778 40.4042 14.6083 41.3441 15.2406V22.6812H42.7559C41.4294 24.1809 38.9439 25.0938 36.8023 24.7579V25.0724C42.9758 25.5597 45.5917 22.6293 45.5917 19.3346C45.5917 15.4531 41.9518 13.1827 38.2286 12.7216V6.99112H31.7316V12.7855C27.5253 13.6286 23.4075 16.1264 23.4075 20.2675C23.4075 26.6402 32.3096 30.5878 40.0644 30.5878C51.8405 30.5878 60.9012 24.8984 60.9012 16.9056C60.9012 7.2346 47.8173 0.333252 37.5415 0.333252C25.7657 0.333252 17.0951 7.81423 17.0951 15.807C17.0951 19.9436 19.4201 23.412 22.3493 25.8294L22.5705 25.6805C20.2513 23.753 18.1582 20.7492 18.1582 16.6208C18.7704 7.87558 29.5493 2.94919 39.1422 2.94919C45.9247 2.94919 58.1121 4.51727 58.1121 15.8603C58.1121 21.7755 51.7904 29.4693 38.5105 29.4693C31.7109 29.4693 26.4296 25.8294 26.4296 20.593C26.43 16.0634 29.9775 12.8423 35.2636 12.8423ZM10.1059 53.3498V52.4557H12.3835V44.7286H6.30135V52.4557H8.637V53.3498H0.250244V52.4557H2.38148V36.7184H0.250244V35.8242H8.637V36.7184H6.30135V43.6927H12.3835V36.7184H10.1059V35.8242H18.4084V36.7184H16.2739V52.4557H18.4084V53.3498H10.1059ZM21.624 35.8242H25.4296V37.9009H21.624V35.8242ZM19.7521 53.3498V52.4557H21.7977V41.6777H19.7521V40.7839H25.5736V52.4557H27.4775V53.3498H19.7521ZM28.2971 53.3498V52.4557H30.4008V34.4121H28.2971V33.5205H34.2051V52.4557H36.193V53.3498H28.2971ZM42.1149 53.3498C40.0405 53.3498 38.9177 52.2832 38.9177 50.6393V41.6777H36.8695V40.7836H38.9177V35.7981C40.0715 35.7981 41.2799 35.8242 42.4624 35.7981V40.7836H45.4022V41.6777H42.4624V52.4557H45.4613V53.3498H42.1149ZM60.099 46.7769C59.7823 42.0206 55.8065 40.3793 53.0653 40.3793C49.9837 40.3793 45.833 42.3093 45.833 46.978C45.833 50.3532 48.3117 53.6666 53.1531 53.6666C57.5051 53.6666 59.2953 50.7552 59.7257 49.5727C60.0706 48.7092 60.1581 47.6994 60.099 46.7769ZM53.0653 52.9455C51.7407 52.9455 50.9344 52.2832 50.5582 51.5618C50.3289 51.1291 50.0121 50.4975 50.0121 46.9215C50.0121 44.2701 50.069 41.2143 53.0369 41.2143C54.2194 41.2143 55.1113 41.7042 55.6031 42.8015C55.7755 43.2035 55.979 43.6078 56.0051 46.8053C56.0335 49.7477 56.0335 52.9455 53.0653 52.9455ZM70.2573 53.3498V52.4557H71.9297V45.0483C71.9297 43.3759 71.9297 41.7345 70.0849 41.7345C69.0464 41.7345 67.3462 42.7705 66.9416 44.4732C66.7973 44.9911 66.8257 45.5401 66.8257 46.9212V52.4557H68.7277V53.3498H61.0055V52.4557H63.0511V41.6777H61.0055V40.7836H66.8257V42.6852C67.4599 41.8789 67.9801 41.2993 69.2195 40.812C69.9405 40.5087 70.7147 40.3519 71.497 40.3509C71.7266 40.3509 72.4173 40.3509 73.2236 40.5801C75.6455 41.2993 75.7614 43.1463 75.7614 44.4732V52.4557H77.7499V53.3498H70.2573Z" fill="#213E99"/>
</svg>
