<svg width="94" height="18" viewBox="0 0 94 18" fill="none" xmlns="http://www.w3.org/2000/svg">
<path d="M90.7792 5.46237C90.6938 5.46237 90.6257 5.39074 90.6257 5.30767V4.2692H90.3292C90.2565 4.2692 90.1942 4.20804 90.1942 4.13412C90.1942 4.05791 90.2565 3.99806 90.3292 3.99806H91.2281C91.2996 3.99806 91.3619 4.05791 91.3619 4.13412C91.3619 4.20804 91.2996 4.2692 91.2281 4.2692H90.9304V5.30767C90.9304 5.39074 90.8623 5.46237 90.7792 5.46237H90.7792ZM93.0004 5.46237C92.9173 5.46237 92.8492 5.39074 92.8492 5.30767V4.40419L92.4627 5.40572C92.4499 5.43843 92.4177 5.46231 92.3807 5.46231C92.3449 5.46231 92.3127 5.43941 92.2999 5.40572L91.9134 4.40422V5.30767C91.9134 5.39074 91.8477 5.46237 91.7646 5.46237C91.6792 5.46237 91.61 5.39074 91.61 5.30767V4.2346C91.61 4.09494 91.7219 3.9821 91.858 3.9821C91.9653 3.9821 92.0542 4.05013 92.0911 4.14596L92.3807 4.90173L92.6738 4.14596C92.7073 4.05013 92.7996 3.9821 92.9046 3.9821C93.043 3.9821 93.1538 4.09526 93.1538 4.2346V5.30773C93.1538 5.39081 93.0858 5.46244 93.0003 5.46244L93.0004 5.46237ZM11.764 3.5412C11.764 3.02197 11.9256 2.54081 12.1991 2.14158C11.3763 2.38394 10.7717 3.13621 10.7717 4.03734V5.62506L11.764 5.67478V3.5412ZM10.7715 14.459C10.7715 15.3602 11.3761 16.1125 12.2 16.3548C11.9254 15.9556 11.7639 15.4744 11.7639 14.9552V11.9772H10.7715L10.7715 14.459ZM13.2529 11.9777H12.2605V14.9558C12.2605 15.8569 12.8651 16.6092 13.6879 16.8515C13.4144 16.4523 13.2529 15.9711 13.2529 15.4519V11.9777ZM13.2529 3.04483C13.2529 2.5256 13.4144 2.04444 13.6879 1.64521C12.8651 1.88757 12.2605 2.63985 12.2605 3.54097V5.69983L13.2529 5.74955V3.04483ZM2.0635 2.40919C1.33772 2.84181 0.846191 3.62758 0.846191 4.53335V13.9626C0.846191 14.8696 1.33772 15.6542 2.0635 16.0869C1.91476 15.728 1.8383 15.3434 1.8385 14.9549V3.54107C1.8385 3.14073 1.91929 2.75877 2.06353 2.40916L2.0635 2.40919ZM3.32748 2.54866C3.32748 2.14832 3.40827 1.76636 3.55251 1.41675C2.82673 1.84947 2.33517 2.63406 2.33517 3.54097V14.956C2.33517 16.0222 3.01133 16.9233 3.95631 17.2741C3.56402 16.7699 3.32748 16.1387 3.32748 15.4521V2.54866Z" fill="#EE2841"/>
<path d="M15.7343 1.05981C14.6381 1.05981 13.7496 1.94827 13.7496 3.04443V6.27057L8.78693 6.02264V2.54839C8.78693 1.1788 7.67579 0.067627 6.30502 0.067627C4.93425 0.067627 3.82422 1.1788 3.82422 2.54839V15.4519C3.82422 16.8227 4.93425 17.9327 6.30502 17.9327C7.67579 17.9327 8.78693 16.8227 8.78693 15.4519V11.4816H13.7496V15.4519C13.7496 16.5481 14.6381 17.4365 15.7343 17.4365C16.8304 17.4365 17.7189 16.5481 17.7189 15.4519V3.04456C17.7189 1.94841 16.8304 1.05994 15.7343 1.05994V1.05981ZM32.8693 13.1459V9.4709H27.5086V13.1459C27.5086 13.5382 27.1889 13.8717 26.7966 13.8717C26.3905 13.8717 26.0559 13.5382 26.0559 13.1459V4.76321C26.0559 4.37092 26.3905 4.03743 26.7828 4.03743C27.1889 4.03743 27.5086 4.37092 27.5086 4.76321V8.17745H32.8693V4.76321C32.8693 4.37092 33.1889 4.03743 33.5963 4.03743C34.0024 4.03743 34.322 4.37092 34.322 4.76321V13.1459C34.322 13.5382 34.0024 13.8717 33.5963 13.8717C33.1889 13.8717 32.8693 13.5382 32.8693 13.1459ZM35.3487 10.2838C35.3487 8.26455 36.7148 6.6088 38.8933 6.6088C41.0867 6.6088 42.4379 8.26455 42.4379 10.2838C42.4379 12.318 41.0868 13.9738 38.8933 13.9738C36.7148 13.9738 35.3487 12.318 35.3487 10.2838V10.2838ZM41.0729 10.2838C41.0729 8.96148 40.3021 7.7707 38.8933 7.7707C37.4983 7.7707 36.7148 8.96148 36.7148 10.2838C36.7148 11.6199 37.4983 12.8119 38.8933 12.8119C40.3021 12.8119 41.0729 11.6199 41.0729 10.2838ZM50.0376 6.60857C52.1445 6.60857 53.4519 8.25048 53.4519 10.0955C53.4519 10.4878 53.1749 10.7197 52.6811 10.7197H47.9019C48.0034 11.9105 48.8757 12.8994 50.2845 12.8994C50.8799 12.8994 51.5053 12.71 52.028 12.3317C52.1007 12.2741 52.2022 12.26 52.3188 12.26C52.6095 12.26 52.8415 12.4919 52.8415 12.7827C52.8415 12.9708 52.7538 13.1162 52.6096 13.2188C51.9115 13.7266 51.083 13.9735 50.1542 13.9735C48.0622 13.9735 46.5218 12.4919 46.5218 10.2835C46.5218 8.25038 47.9895 6.60847 50.0376 6.60847V6.60857ZM47.888 9.77576H52.1734C52.1446 8.84579 51.5192 7.68386 50.0376 7.68386C48.6288 7.68386 47.9596 8.81694 47.888 9.77576ZM54.2838 13.2184V4.69027C54.2838 4.32797 54.5746 4.0372 54.9381 4.0372C55.2865 4.0372 55.5911 4.32797 55.5911 4.69027V13.2184C55.5911 13.5818 55.2865 13.8726 54.9381 13.8726C54.852 13.8729 54.7668 13.8563 54.6873 13.8235C54.6077 13.7908 54.5355 13.7426 54.4746 13.6818C54.4138 13.6209 54.3656 13.5487 54.3329 13.4691C54.3001 13.3896 54.2835 13.3044 54.2838 13.2184ZM56.432 12.7244C56.432 12.4049 56.6789 12.1579 56.9985 12.1579C57.115 12.1579 57.2304 12.2017 57.3181 12.2593C57.8558 12.6516 58.5527 12.9274 59.2935 12.9274C60.2812 12.9274 60.8039 12.5212 60.8039 11.9247C60.8039 11.2277 60.0054 10.9958 59.1043 10.7927C57.9135 10.5157 56.5197 10.1962 56.5197 8.68582C56.5197 7.56775 57.4773 6.60889 59.192 6.60889C60.1658 6.60889 60.9354 6.89835 61.5308 7.33467C61.6612 7.43607 61.7627 7.58161 61.7627 7.77083C61.7627 8.06029 61.5158 8.30736 61.2262 8.30736C61.1246 8.30736 61.0081 8.26451 60.9354 8.20597C60.4854 7.87251 59.8751 7.66943 59.207 7.66943C58.3208 7.66943 57.7681 8.0179 57.7681 8.58442C57.7681 9.19481 58.5239 9.39789 59.395 9.60097C60.6158 9.8767 62.0685 10.2114 62.0685 11.8233C62.0685 13.029 61.0808 13.9741 59.2358 13.9741C58.262 13.9741 57.3908 13.7271 56.6789 13.1894C56.5335 13.088 56.432 12.9137 56.432 12.7244ZM63.7837 12.1433C64.2776 12.1433 64.6987 12.5506 64.6987 13.0445C64.6987 13.5384 64.2775 13.9595 63.7837 13.9595C63.2898 13.9595 62.8825 13.5383 62.8825 13.0445C62.8825 12.5506 63.2898 12.1433 63.7837 12.1433ZM71.4864 10.2838C71.4864 8.26455 72.8514 6.6088 75.031 6.6088C77.2245 6.6088 78.5756 8.26455 78.5756 10.2838C78.5756 12.318 77.2245 13.9738 75.031 13.9738C72.8514 13.9738 71.4864 12.318 71.4864 10.2838V10.2838ZM77.2106 10.2838C77.2106 8.96148 76.4399 7.7707 75.031 7.7707C73.636 7.7707 72.8514 8.96148 72.8514 10.2838C72.8514 11.6199 73.636 12.8119 75.031 12.8119C76.4399 12.8119 77.2106 11.6199 77.2106 10.2838ZM89.3926 8.72932V13.219C89.3926 13.5813 89.0868 13.872 88.7245 13.872C88.3761 13.872 88.0853 13.5813 88.0853 13.219V9.12161C88.0853 8.30818 87.7218 7.91585 86.8645 7.91585C86.1526 7.91585 85.4557 8.71663 85.1211 9.22546V13.219C85.1214 13.3048 85.1048 13.3899 85.0721 13.4693C85.0394 13.5487 84.9913 13.6209 84.9306 13.6816C84.8699 13.7423 84.7977 13.7904 84.7183 13.8231C84.6389 13.8558 84.5539 13.8724 84.468 13.872C84.1195 13.872 83.8137 13.5813 83.8137 13.219V9.12161C83.8137 8.30818 83.4653 7.91585 82.5791 7.91585C81.8961 7.91585 81.2141 8.7651 80.8645 9.27279V13.2189C80.8645 13.5812 80.5599 13.872 80.2114 13.872C79.848 13.872 79.5572 13.5812 79.5572 13.2189V7.36431C79.5572 7.00086 79.848 6.71009 80.1964 6.71009C80.5599 6.71009 80.8645 7.00086 80.8645 7.36431V7.77047C81.1553 7.33431 82.0853 6.60853 83.1307 6.60853C84.1922 6.60853 84.8164 7.16008 85.0345 7.91585C85.4407 7.26164 86.3903 6.60853 87.4218 6.60853C88.7153 6.60853 89.3926 7.32048 89.3926 8.72932Z" fill="#EE2841"/>
<path d="M68.6171 6.60835C69.6198 6.60835 70.3167 6.9279 70.8544 7.42181C70.9698 7.52321 71.0575 7.69754 71.0575 7.85797C71.0575 8.19142 70.7956 8.45334 70.4771 8.45334C70.3167 8.45334 70.1863 8.39447 70.0836 8.3078C69.6775 7.93048 69.2275 7.77012 68.6748 7.77012C67.2948 7.77012 66.4086 8.8305 66.4086 10.2832C66.4086 11.7359 67.296 12.7651 68.6748 12.8113C69.606 12.844 70.544 12.1663 71.2975 10.9767C71.391 10.8289 71.5282 10.5543 71.6413 10.4113C71.8548 10.1414 72.0071 10.2706 72.1329 10.4015C72.3636 10.6425 72.3613 11.2149 72.2114 11.4965C71.7879 12.2869 71.4314 12.655 71.0264 13.0507C70.4621 13.5977 69.6198 13.9726 68.6171 13.9726C66.4963 13.9726 65.0436 12.3896 65.0436 10.2826C65.0436 8.17687 66.4963 6.60763 68.6171 6.60763V6.60835ZM47.4556 12.7235C47.4556 12.9705 46.7483 13.5231 46.2395 13.7701C45.9499 13.9107 45.6579 13.9732 45.2368 13.9732C44.1326 13.9732 43.566 13.3489 43.566 12.2447V7.93045H42.8979C42.5933 7.93045 42.3164 7.66846 42.3164 7.34891C42.3164 7.0444 42.5933 6.78242 42.8979 6.78242H43.566V5.44621C43.5657 5.3602 43.5824 5.27497 43.6151 5.19544C43.6479 5.1159 43.696 5.04364 43.7569 4.98282C43.8177 4.922 43.8899 4.87383 43.9695 4.84107C44.049 4.80832 44.1342 4.79164 44.2202 4.792C44.5687 4.792 44.8733 5.08277 44.8733 5.44621V6.78238H45.7895C46.108 6.78238 46.3699 7.04437 46.3699 7.34891C46.3699 7.66846 46.108 7.93045 45.7895 7.93045H44.8733V11.954C44.8733 12.4479 45.1064 12.8113 45.5564 12.8113C46.356 12.8113 46.9849 11.5697 47.3391 11.5697C47.6726 11.5697 47.4556 12.404 47.4556 12.7236" fill="#EE2841"/>
</svg>
