<svg width="94" height="43" viewBox="0 0 94 43" fill="none" xmlns="http://www.w3.org/2000/svg">
<path d="M83.2803 40.6145C83.2803 40.6145 83.8766 41.2109 84.705 41.2109C85.2351 41.2109 85.6658 40.9127 85.6658 40.3826C85.6658 39.1567 82.9489 39.4217 82.9489 37.6988C82.9489 36.8374 83.711 36.1416 84.7712 36.1416C85.8315 36.1416 86.3616 36.7049 86.3616 36.7049L85.9971 37.3675C85.9971 37.3675 85.467 36.8705 84.7712 36.8705C84.1748 36.8705 83.7441 37.235 83.7441 37.6988C83.7441 38.8585 86.461 38.5603 86.461 40.3826C86.461 41.244 85.7983 41.973 84.6718 41.973C83.4791 41.973 82.8164 41.244 82.8164 41.244L83.2803 40.6145Z" fill="#0E7755"/>
<path d="M6.71067 13.7773H0.846191V30.5756H2.76789V24.1147H6.71067C9.85828 24.1147 11.9456 22.0274 11.9456 18.9129C11.9456 15.8316 9.82514 13.7773 6.71067 13.7773ZM2.76789 15.5334H6.51188C8.6655 15.5334 9.99081 16.8255 9.99081 18.9129C9.99081 21.0334 8.6655 22.3587 6.47874 22.3587H2.76789V15.5334Z" fill="#0E7755"/>
<path d="M20.8585 13.7773L14.6958 30.5756H16.7169L18.6055 25.3075H25.0332L26.9218 30.5756H28.9429L22.8133 13.7773H20.8585ZM24.3374 23.7171L19.0693 23.5515L21.3886 17.8195C21.5874 17.3225 21.8193 16.5936 21.9519 16.0966C22.0513 16.5605 22.2501 17.3225 22.4157 17.8195L24.3374 23.7171Z" fill="#0E7755"/>
<path d="M41.3674 23.1869C43.2229 22.5905 44.4157 20.8344 44.4157 18.6477C44.4157 16.6266 43.4548 14.9699 41.8313 14.2742C41.1687 13.976 40.4066 13.8103 38.6837 13.8103H33.6807V30.6086H35.6024V23.6507H39.5452L43.2891 30.6086H45.4759L41.765 23.7501C41.5662 23.4851 41.4668 23.2863 41.3674 23.1869ZM42.494 18.6808C42.494 20.6688 41.3012 21.8947 39.3795 21.8947H35.6024V15.5332H38.7831C40.0753 15.5332 40.6054 15.6657 41.0693 15.9308C41.997 16.3947 42.494 17.3886 42.494 18.6808Z" fill="#0E7755"/>
<path d="M59.458 13.7773L55.0183 20.9671H52.4339V13.7773H50.5122V30.5756H52.4339V22.69H55.0183L59.7231 30.5756H61.9761L56.6086 21.7623L61.6448 13.7773H59.458Z" fill="#0E7755"/>
<path d="M1.64138 38.6933V36.2415H0.846191V41.874H1.64138V39.389H4.55705V41.874H5.35223V36.2415H4.55705V38.6933H1.64138Z" fill="#0E7755"/>
<path d="M10.1897 36.1416C11.8132 36.1416 13.0722 37.4006 13.0722 39.0242C13.0722 40.6808 11.8132 41.973 10.1897 41.973C8.56617 41.973 7.30713 40.6808 7.30713 39.0242C7.30713 37.4006 8.56617 36.1416 10.1897 36.1416ZM10.1897 41.244C11.3493 41.244 12.277 40.2832 12.277 39.0242C12.277 37.7982 11.3493 36.8705 10.1897 36.8705C9.03003 36.8705 8.10231 37.7982 8.10231 39.0242C8.10231 40.2832 9.06316 41.244 10.1897 41.244Z" fill="#0E7755"/>
<path d="M16.1536 36.9041V41.874H16.9488V36.9041H18.9037V36.2415H14.2319V36.9041H16.1536Z" fill="#0E7755"/>
<path d="M23.9066 41.874V41.1782H21.2891V39.3559H23.3102V38.6933H21.2891V36.9041H23.774V36.2415H20.4939V41.874H23.9066Z" fill="#0E7755"/>
<path d="M30.8975 40.6145C30.8975 40.6145 31.4938 41.2109 32.3222 41.2109C32.8523 41.2109 33.283 40.9127 33.283 40.3826C33.283 39.1567 30.5661 39.4217 30.5661 37.6988C30.5661 36.8374 31.3282 36.1416 32.3884 36.1416C33.4487 36.1416 33.9788 36.7049 33.9788 36.7049L33.6143 37.3675C33.6143 37.3675 33.0842 36.8705 32.3884 36.8705C31.792 36.8705 31.3613 37.235 31.3613 37.6988C31.3613 38.8585 34.0782 38.5603 34.0782 40.3826C34.0782 41.244 33.4155 41.973 32.289 41.973C31.0962 41.973 30.4336 41.244 30.4336 41.244L30.8975 40.6145Z" fill="#0E7755"/>
<path d="M40.0421 38.8258C40.0421 38.8258 39.3132 38.5607 39.3132 37.5667C39.3132 36.639 40.0421 36.1089 41.0361 36.1089C41.3343 36.1089 41.7319 36.2083 41.7319 36.2083L41.5331 36.8378C41.5331 36.8378 41.3011 36.8047 41.1023 36.8047C40.5391 36.8047 40.1083 37.1029 40.1083 37.6661C40.1083 38.0306 40.274 38.5607 41.1355 38.5607H42.1957V37.7987H42.9578V38.5607H43.7198V39.2565H42.9578V40.0185C42.9578 41.2776 42.2289 42.0065 41.0029 42.0065C39.8433 42.0065 39.0481 41.2776 39.0481 40.3167C39.0481 39.6541 39.4126 39.0577 40.0421 38.8258ZM41.0029 41.2444C41.7319 41.2444 42.1626 40.8469 42.1626 39.9523V39.2234H41.0692C40.274 39.2234 39.8102 39.5878 39.8102 40.2173C39.8433 40.7806 40.3071 41.2444 41.0029 41.2444Z" fill="#0E7755"/>
<path d="M48.0271 36.2415H49.75C50.3464 36.2415 50.5783 36.2746 50.8102 36.374C51.3735 36.5728 51.7711 37.1692 51.7711 37.8981C51.7711 38.627 51.3735 39.2234 50.744 39.4222C50.744 39.4222 50.8102 39.4884 50.9096 39.6872L52.1024 41.874H51.2078L50.0151 39.621H48.8223V41.874H48.0271V36.2415ZM49.9488 38.9252C50.5783 38.9252 50.9428 38.5276 50.9428 37.8981C50.9428 37.4674 50.7771 37.2023 50.4789 37.0366C50.3132 36.9704 50.1476 36.9041 49.7169 36.9041H48.8223V38.9252H49.9488Z" fill="#0E7755"/>
<path d="M57.3375 41.874V41.1782H54.72V39.3559H56.7411V38.6933H54.72V36.9041H57.205V36.2415H53.9248V41.874H57.3375Z" fill="#0E7755"/>
<path d="M76.3888 27.8586V24.4128L78.94 25.6718V29.1176L76.3888 27.8586ZM79.7352 25.6718L82.2864 24.4128V27.8586L79.7352 29.1176V25.6718ZM73.0424 26.1688V22.723L75.5936 23.982V27.4278L73.0424 26.1688ZM83.0816 24.0152L85.6328 22.7561V26.2019L83.0816 27.461V24.0152ZM69.696 24.5122V21.0664L72.2472 22.3254V25.7712L69.696 24.5122ZM86.428 22.3254L88.9792 21.0664V24.5122L86.428 25.7712V22.3254ZM76.3888 23.5182V20.0724L78.94 21.3314V24.7772L76.3888 23.5182ZM79.7352 21.3646L82.2864 20.1055V23.5513L79.7352 24.8104V21.3646ZM66.3496 22.8224V19.4097L68.9008 20.6688V24.1146L66.3496 22.8224ZM89.8075 20.6688L92.3587 19.4097V22.8555L89.8075 24.1146V20.6688ZM73.0424 21.8616V18.4158L75.5936 19.6748V23.1206L73.0424 21.8616ZM83.0816 19.6748L85.6328 18.4158V21.8616L83.0816 23.1206V19.6748ZM69.696 20.1718V16.7591L72.2472 18.0182V21.464L69.696 20.1718ZM86.428 18.0182L88.9792 16.7591V20.2049L86.428 21.464V18.0182ZM76.3888 19.2109V15.7651L78.94 17.0242V20.47L76.3888 19.2109ZM79.7352 17.0242L82.2864 15.7651V19.2109L79.7352 20.47V17.0242ZM66.3496 18.5151V15.0693L68.9008 16.3284V19.7742L66.3496 18.5151ZM89.8075 16.3615L92.3587 15.1025V18.5483L89.8075 19.8073V16.3615ZM73.0424 17.5212V14.0754L75.5936 15.3344V18.7802L73.0424 17.5212ZM83.0816 15.3675L85.6328 14.1085V17.5543L83.0816 18.8133V15.3675ZM69.696 15.8645V12.4187L72.2472 13.6778V17.1236L69.696 15.8645ZM86.428 13.6778L88.9792 12.4187V15.8645L86.428 17.1236V13.6778ZM76.3888 14.8706V11.4248L78.94 12.6838V16.1296L76.3888 14.8706ZM79.7352 12.7169L82.2864 11.4579V14.9037L79.7352 16.1627V12.7169ZM73.0424 13.2139V9.76812L75.5936 11.0272V14.473L73.0424 13.2139ZM83.0816 11.0272L85.6328 9.76812V13.2139L83.0816 14.473V11.0272ZM69.696 11.5241V8.07835L72.2472 9.33739V12.7832L69.696 11.5241ZM86.428 9.37052L88.9792 8.11148V11.5573L86.428 12.8163V9.37052ZM76.3888 10.5302V7.1175L78.94 8.37654V11.8223L76.3888 10.5302ZM79.7352 8.37654L82.2864 7.1175V10.5633L79.7352 11.8223V8.37654ZM73.0424 8.87353V5.42773L75.5936 6.68677V10.1326L73.0424 8.87353ZM83.0816 6.71991L85.6328 5.46086V8.90666L83.0816 10.1657V6.71991ZM76.3888 6.22292V2.77711L78.94 4.03616V7.48196L76.3888 6.22292ZM79.7352 4.06929L82.2864 2.81025V6.25605L79.7352 7.51509V4.06929ZM76.8858 2.14759L79.3376 0.921683L81.7894 2.14759L79.3376 3.3735L76.8858 2.14759ZM79.3376 0.0270996L75.5936 1.88253V5.82532L72.2472 4.16869V8.50907L68.9008 6.85244V15.5001L65.5544 13.8434V23.3857L78.9731 30.0785V34.1538H79.7683V30.0122L93.187 23.3194V13.7772L89.8406 15.4338V6.8193L86.4942 8.47594V4.16869L83.1478 5.82532V1.88253L79.3376 0.0270996Z" fill="#0E7755"/>
<path d="M59.3254 40.6145C59.3254 40.6145 59.9218 41.2109 60.7502 41.2109C61.2803 41.2109 61.711 40.9127 61.711 40.3826C61.711 39.1567 58.9941 39.4217 58.9941 37.6988C58.9941 36.8374 59.7562 36.1416 60.8164 36.1416C61.8767 36.1416 62.4068 36.7049 62.4068 36.7049L62.0424 37.3675C62.0424 37.3675 61.5122 36.8705 60.8164 36.8705C60.22 36.8705 59.7893 37.235 59.7893 37.6988C59.7893 38.8585 62.5062 38.5603 62.5062 40.3826C62.5062 41.244 61.8436 41.973 60.717 41.973C59.5242 41.973 58.8616 41.244 58.8616 41.244L59.3254 40.6145Z" fill="#0E7755"/>
<path d="M66.979 36.1416C68.6025 36.1416 69.8616 37.4006 69.8616 39.0242C69.8616 40.6808 68.6025 41.973 66.979 41.973C65.3555 41.973 64.0964 40.6808 64.0964 39.0242C64.0964 37.4006 65.3555 36.1416 66.979 36.1416ZM66.979 41.244C68.1387 41.244 69.0664 40.2832 69.0664 39.0242C69.0664 37.7982 68.1387 36.8705 66.979 36.8705C65.8194 36.8705 64.8916 37.7982 64.8916 39.0242C64.8916 40.2832 65.8194 41.244 66.979 41.244Z" fill="#0E7755"/>
<path d="M71.8164 36.2415H73.5393C74.1357 36.2415 74.3676 36.2746 74.5996 36.374C75.1628 36.5728 75.5604 37.1692 75.5604 37.8981C75.5604 38.627 75.1628 39.2234 74.5333 39.4222C74.5333 39.4222 74.5995 39.4884 74.6989 39.6872L75.8917 41.874H74.9971L73.8044 39.621H72.6116V41.874H71.8164V36.2415ZM73.7381 38.9252C74.3676 38.9252 74.7321 38.5276 74.7321 37.8981C74.7321 37.4674 74.5664 37.2023 74.2682 37.0366C74.1026 36.9704 73.9369 36.9041 73.5062 36.9041H72.6116V38.9252H73.7381Z" fill="#0E7755"/>
</svg>
