<svg width="94" height="24" viewBox="0 0 94 24" fill="none" xmlns="http://www.w3.org/2000/svg">
<path d="M48.3953 13.4188L44.8932 4.61329L41.4114 13.3603C43.7392 13.2841 46.0691 13.3036 48.3953 13.4188ZM77.4604 22.3464C69.9553 19.0828 61.515 16.6659 51.5975 15.85L54.6173 23.1841H52.2799L49.299 15.6925C46.3732 15.5264 43.4411 15.5031 40.513 15.6227L37.5036 23.1841H35.1646L38.2265 15.7435C27.7068 16.4334 18.7476 18.9261 10.878 22.3442V21.8823C16.1304 18.9509 21.3243 16.7626 26.9314 15.3333V10.8316L20.6171 1.13744H22.9628L27.9737 9.19226L32.9869 1.13822H35.3304L29.0169 10.8316L29.0154 14.8399C32.225 14.1432 35.5786 13.6827 39.1654 13.4645L44.3698 0.816498H45.4129L50.6586 13.565C54.1794 13.8462 57.4798 14.3644 60.6436 15.1225V2.82401H55.4842V1.13744H67.9373V2.82475H62.7801V15.6767C67.8675 17.0978 72.6415 19.1646 77.4604 21.8867V22.3464ZM85.8039 1.13744H73.3524V2.82475H78.5118V18.0255H80.646V2.82475H85.8039V1.13744ZM14.3231 18.0255L12.1881 18.027V9.69396H2.9807V18.0255H0.845703V1.13744H2.9807V8.0089H12.1881V1.13744H14.3231V18.0255ZM91.4365 2.45281C91.3345 2.39282 91.1695 2.36282 90.943 2.36282H90.5951V3.20872H90.9633C91.138 3.20872 91.2655 3.18996 91.3533 3.15622C91.4272 3.12956 91.4905 3.07976 91.5339 3.01424C91.5772 2.94872 91.5983 2.87098 91.594 2.79252C91.594 2.62379 91.54 2.5113 91.4365 2.45281ZM90.997 2.0876C91.2828 2.0876 91.4942 2.11536 91.63 2.16935C91.8699 2.26984 91.9884 2.46778 91.9884 2.75874C91.9884 2.96497 91.9134 3.1187 91.7635 3.21769C91.6598 3.27685 91.5453 3.31438 91.4267 3.32795C91.612 3.35645 91.7425 3.43217 91.8279 3.55516C91.9038 3.66085 91.9469 3.78658 91.9517 3.91661V4.08537C91.9517 4.14011 91.9539 4.19786 91.9577 4.2571C91.9576 4.29894 91.9644 4.3405 91.9779 4.38009L91.9929 4.40856H91.612L91.6052 4.38608C91.603 4.37783 91.603 4.3673 91.6007 4.3583L91.591 4.28333V4.09887C91.591 3.8319 91.516 3.6549 91.3712 3.56866C91.2828 3.51992 91.1343 3.49369 90.9161 3.49369H90.5951V4.40856H90.1841V2.0876H90.997ZM89.7537 1.96759C89.5822 2.13504 89.4467 2.33578 89.3555 2.55744C89.2644 2.77911 89.2194 3.01704 89.2235 3.25669C89.2235 3.76288 89.3982 4.19407 89.7507 4.55177C89.9164 4.72503 90.1163 4.86208 90.3376 4.95424C90.559 5.04639 90.7971 5.0917 91.0368 5.08725C91.5407 5.08725 91.9697 4.91023 92.3251 4.55177C92.6776 4.19482 92.8538 3.76288 92.8538 3.25669C92.8576 3.0171 92.8127 2.77925 92.7218 2.55753C92.6309 2.33582 92.496 2.13487 92.3251 1.96686C92.1578 1.79527 91.9573 1.65955 91.7358 1.56801C91.5143 1.47647 91.2764 1.43101 91.0368 1.43441C90.798 1.43094 90.5611 1.4764 90.3405 1.56797C90.12 1.65953 89.9205 1.7953 89.7544 1.96686L89.7537 1.96759ZM92.5321 4.75276C92.3392 4.95398 92.1068 5.11315 91.8495 5.22026C91.5922 5.32737 91.3155 5.38013 91.0368 5.37519C90.4519 5.37519 89.9532 5.16896 89.5407 4.75276C89.3427 4.55737 89.1864 4.32386 89.0812 4.06633C88.976 3.80879 88.9242 3.53259 88.9288 3.25444C88.9288 2.67326 89.135 2.17458 89.5482 1.76213C89.9592 1.35118 90.4556 1.14495 91.0368 1.14495C91.6232 1.14495 92.1212 1.35116 92.5321 1.76286C92.7328 1.95527 92.8916 2.18711 92.9984 2.44379C93.1053 2.70047 93.1579 2.97645 93.153 3.25444C93.153 3.83787 92.9468 4.33731 92.5321 4.75276Z" fill="#4B77A9"/>
</svg>
